<svg width="970" height="111" viewBox="0 0 970 111" fill="none" xmlns="http://www.w3.org/2000/svg">
<path d="M939.037 110.197C929.398 110.197 921.535 107.641 915.45 102.529C909.413 97.4175 906.2 90.8208 905.81 82.7393H921.803C922.046 86.2932 923.75 89.4333 926.915 92.1596C930.128 94.8372 934.169 96.176 939.037 96.176C943.272 96.176 946.705 95.2997 949.334 93.5471C952.011 91.7458 953.35 89.482 953.35 86.7557C953.35 82.0821 950.161 79.0394 943.784 77.6275L930.931 74.6335C927.815 73.9519 925.065 73.0999 922.679 72.0776C920.294 71.0065 918.03 69.6191 915.888 67.9151C913.746 66.2112 912.091 64.0204 910.922 61.3428C909.802 58.6652 909.243 55.5738 909.243 52.0686C909.243 45.8857 911.847 40.7009 917.056 36.5141C922.265 32.3273 929.081 30.2339 937.503 30.2339C945.828 30.2339 952.814 32.4003 958.462 36.7332C964.158 41.0173 967.493 46.8594 968.466 54.2593H952.474C952.036 50.9488 950.38 48.3442 947.508 46.4456C944.684 44.4982 941.349 43.5246 937.503 43.5246C933.95 43.5246 931.053 44.3035 928.813 45.8614C926.623 47.4193 925.527 49.4883 925.527 52.0686C925.527 56.0606 928.57 58.7869 934.655 60.2474L947.508 63.0954C950.916 63.8257 953.861 64.702 956.344 65.7244C958.827 66.7467 961.164 68.1342 963.355 69.8868C965.545 71.5907 967.201 73.8302 968.32 76.6052C969.44 79.3315 970 82.5689 970 86.3176C970 93.1333 967.128 98.8293 961.383 103.406C955.687 107.933 948.238 110.197 939.037 110.197Z" fill="white"/>
<path d="M823.584 70.1789C823.584 64.8724 824.388 59.8336 825.994 55.0626C827.65 50.2916 830.011 46.0561 833.078 42.3561C836.145 38.6562 840.088 35.7108 844.908 33.52C849.776 31.3293 855.18 30.2339 861.12 30.2339C866.962 30.2339 872.244 31.2806 876.966 33.374C881.737 35.4187 885.608 38.1937 888.577 41.6989C891.596 45.1555 893.884 49.0988 895.442 53.5291C897.048 57.9593 897.827 62.6086 897.779 67.477L897.486 74.0493H839.796C840.526 81.1084 842.888 86.5853 846.88 90.48C850.872 94.3747 856.032 96.3221 862.361 96.3221C867.229 96.3221 871.392 95.2267 874.848 93.0359C878.305 90.8452 880.471 87.8024 881.348 83.9077H897.34C896.026 92.184 892.156 98.6346 885.729 103.26C879.303 107.884 871.368 110.197 861.923 110.197C854.036 110.197 847.123 108.323 841.184 104.574C835.293 100.777 830.887 95.8839 827.966 89.8958C825.045 83.9077 823.584 77.3354 823.584 70.1789ZM840.526 61.1968H880.325C879.936 55.7929 878.062 51.4357 874.702 48.1252C871.343 44.766 866.816 43.0864 861.12 43.0864C855.716 43.0864 851.237 44.6686 847.683 47.8331C844.129 50.9975 841.744 55.4521 840.526 61.1968Z" fill="white"/>
<path d="M821.612 46.2265C819.275 45.6423 816.67 45.3502 813.798 45.3502C807.615 45.3502 802.43 48.2712 798.244 54.1133C794.057 59.9553 791.963 68.5967 791.963 80.0374V109.029H775.679V31.4023H791.963V46.2265C793.716 41.6502 796.905 37.8529 801.53 34.8345C806.155 31.7674 810.95 30.2339 815.916 30.2339C817.23 30.2339 818.496 30.3069 819.713 30.453C820.93 30.599 821.563 30.672 821.612 30.672V46.2265Z" fill="white"/>
<path d="M758.006 31.4014V109.028H741.722V95.883C738.995 100.362 735.393 103.867 730.914 106.399C726.435 108.93 721.469 110.196 716.017 110.196C707.74 110.196 700.998 107.689 695.789 102.674C690.628 97.6113 688.048 90.9173 688.048 82.5923V31.4014H704.333V78.9411C704.333 83.8581 705.769 87.8745 708.641 90.9903C711.562 94.0574 715.457 95.5909 720.325 95.5909C726.995 95.5909 732.228 92.9133 736.026 87.5581C739.823 82.2029 741.722 74.8516 741.722 65.5043V31.4014H758.006Z" fill="white"/>
<path d="M676.729 31.403V45.2049H657.889V84.2006C657.889 87.9979 658.887 90.9189 660.883 92.9637C662.927 95.0084 665.629 96.0307 668.988 96.0307C670.838 96.0307 673.419 95.6169 676.729 94.7893V109.029C674.392 109.808 671.252 110.198 667.309 110.198C659.422 110.198 653.166 108.129 648.541 103.991C643.916 99.8037 641.604 93.6452 641.604 85.515V45.2049H627.802V31.403H641.604V8.25391H657.889V31.403H676.729Z" fill="white"/>
<path d="M549.739 109.029V31.4023H566.023V44.5469C568.75 40.068 572.352 36.5628 576.831 34.0312C581.31 31.4997 586.276 30.2339 591.728 30.2339C600.005 30.2339 606.723 32.7654 611.883 37.8286C617.093 42.8917 619.697 49.5857 619.697 57.9106V109.029H603.412V61.4889C603.412 56.5718 601.952 52.5797 599.031 49.5127C596.158 46.3969 592.288 44.839 587.42 44.839C580.75 44.839 575.517 47.5166 571.719 52.8718C567.922 58.227 566.023 65.5783 566.023 74.9256V109.029H549.739Z" fill="white"/>
<path d="M461.962 70.1789C461.962 64.8724 462.765 59.8336 464.371 55.0626C466.027 50.2916 468.388 46.0561 471.455 42.3561C474.522 38.6562 478.465 35.7108 483.285 33.52C488.153 31.3293 493.557 30.2339 499.497 30.2339C505.339 30.2339 510.621 31.2806 515.343 33.374C520.114 35.4187 523.985 38.1937 526.954 41.6989C529.973 45.1555 532.261 49.0988 533.819 53.5291C535.425 57.9593 536.204 62.6086 536.156 67.477L535.863 74.0493H478.173C478.903 81.1084 481.265 86.5853 485.257 90.48C489.249 94.3747 494.409 96.3221 500.738 96.3221C505.607 96.3221 509.769 95.2267 513.226 93.0359C516.682 90.8452 518.849 87.8024 519.725 83.9077H535.717C534.403 92.184 530.533 98.6346 524.106 103.26C517.68 107.884 509.745 110.197 500.3 110.197C492.413 110.197 485.5 108.323 479.561 104.574C473.67 100.777 469.264 95.8839 466.343 89.8958C463.422 83.9077 461.962 77.3354 461.962 70.1789ZM478.903 61.1968H518.702C518.313 55.7929 516.439 51.4357 513.079 48.1252C509.72 44.766 505.193 43.0864 499.497 43.0864C494.093 43.0864 489.614 44.6686 486.06 47.8331C482.506 50.9975 480.121 55.4521 478.903 61.1968Z" fill="white"/>
<path d="M409.383 109.026L368.708 1.16748H387.548L418.657 86.7535L449.766 1.16748H467.731L427.055 109.026H409.383Z" fill="white"/>
<path d="M292.467 110.197C284.58 110.197 278.13 108.128 273.115 103.99C268.149 99.8517 265.667 94.4965 265.667 87.9242C265.667 81.2545 267.979 75.8749 272.604 71.7855C277.229 67.6474 283.801 65.0184 292.321 63.8987L308.898 61.6349C313.377 61.0507 315.616 58.9086 315.616 55.2087C315.616 51.7521 314.131 48.9041 311.161 46.6647C308.24 44.3765 304.297 43.2325 299.331 43.2325C294.512 43.2325 290.544 44.4252 287.428 46.8107C284.361 49.1475 282.657 52.4337 282.316 56.6692H266.324C267.249 48.539 270.632 42.1127 276.474 37.3904C282.365 32.6194 289.984 30.2339 299.331 30.2339C309.263 30.2339 317.174 32.8385 323.065 38.0476C329.004 43.2568 331.974 50.2186 331.974 58.933V89.7498C331.974 93.8392 333.653 95.8839 337.013 95.8839L339.568 95.5918V109.029C336.988 109.613 334.457 109.905 331.974 109.905C327.787 109.905 324.403 108.883 321.823 106.838C319.292 104.793 317.88 101.726 317.588 97.6366C315.738 101.483 312.549 104.55 308.021 106.838C303.494 109.077 298.309 110.197 292.467 110.197ZM295.023 97.4905C301.546 97.4905 306.683 95.4214 310.431 91.2833C314.229 87.1452 316.127 81.6926 316.127 74.9256V72.0776L295.023 75.5098C286.357 76.8243 282.024 80.7676 282.024 87.3399C282.024 90.3583 283.217 92.8169 285.603 94.7155C288.037 96.5655 291.177 97.4905 295.023 97.4905Z" fill="white"/>
<path d="M193.225 109.027V0H209.51V61.0494L240.619 31.401H263.33L231.199 61.6336L265.74 109.027H245.439L219.807 72.5145L209.51 82.0808V109.027H193.225Z" fill="white"/>
<path d="M159.196 109.027V31.401H175.481V109.027H159.196ZM158.466 0H176.504V18.4025H158.466V0Z" fill="white"/>
<path d="M101.286 110.197C93.3996 110.197 86.949 108.128 81.9346 103.99C76.9688 99.8517 74.486 94.4965 74.486 87.9242C74.486 81.2545 76.7984 75.8749 81.4234 71.7855C86.0484 67.6474 92.6207 65.0184 101.14 63.8987L117.717 61.6349C122.196 61.0507 124.435 58.9086 124.435 55.2087C124.435 51.7521 122.951 48.9041 119.981 46.6647C117.06 44.3765 113.117 43.2325 108.151 43.2325C103.331 43.2325 99.3634 44.4252 96.2476 46.8107C93.1805 49.1475 91.4766 52.4337 91.1358 56.6692H75.1432C76.0682 48.539 79.4517 42.1127 85.2938 37.3904C91.1845 32.6194 98.8035 30.2339 108.151 30.2339C118.082 30.2339 125.993 32.8385 131.884 38.0476C137.824 43.2568 140.793 50.2186 140.793 58.933V89.7498C140.793 93.8392 142.473 95.8839 145.832 95.8839L148.388 95.5918V109.029C145.808 109.613 143.276 109.905 140.793 109.905C136.606 109.905 133.223 108.883 130.643 106.838C128.111 104.793 126.699 101.726 126.407 97.6366C124.557 101.483 121.368 104.55 116.841 106.838C112.313 109.077 107.128 110.197 101.286 110.197ZM103.842 97.4905C110.366 97.4905 115.502 95.4214 119.251 91.2833C123.048 87.1452 124.947 81.6926 124.947 74.9256V72.0776L103.842 75.5098C95.1766 76.8243 90.8437 80.7676 90.8437 87.3399C90.8437 90.3583 92.0365 92.8169 94.422 94.7155C96.8561 96.5655 99.9963 97.4905 103.842 97.4905Z" fill="white"/>
<path d="M0 109.026V1.16748H17.3801V93.4719H69.3013V109.026H0Z" fill="white"/>
</svg>
